<svg width="30" height="30" viewBox="0 0 30 30" fill="none" 
    xmlns="http://www.w3.org/2000/svg">
    <g clip-path="url(#clip0)">
        <path d="M15 17.9297C13.3846 17.9297 12.0703 16.6154 12.0703 15C12.0703 13.3846 13.3846 12.0703 15 12.0703C16.6155 12.0703 17.9297 13.3846 17.9297 15C17.9297 16.6154 16.6155 17.9297 15 17.9297ZM15 13.2422C14.0308 13.2422 13.2422 14.0307 13.2422 15C13.2422 15.9693 14.0308 16.7578 15 16.7578C15.9693 16.7578 16.7578 15.9693 16.7578 15C16.7578 14.0307 15.9692 13.2422 15 13.2422Z" fill="#FABFB7"/>
        <path d="M2.56727 18.7688C2.62241 17.5942 2.67936 16.3826 3.53759 15C2.67942 13.6174 2.62247 12.4059 2.56727 11.2312C2.52134 10.2524 2.47376 9.24029 1.9743 8.01398C1.9061 7.84641 1.91911 7.65668 2.00958 7.5C2.10005 7.34332 2.25784 7.23721 2.43708 7.21248C3.74882 7.03189 4.64911 6.56695 5.51975 6.11742C6.56454 5.57789 7.64372 5.02096 9.2687 5.07334C10.0369 3.63879 11.0577 2.98371 12.0474 2.34861C12.8722 1.81939 13.7249 1.27213 14.5372 0.226465C14.6482 0.0836133 14.8189 0 14.9999 0C15.1809 0 15.3517 0.0836133 15.4626 0.226523C15.6784 0.504316 15.9026 0.755273 16.1479 0.993809C16.3799 1.21939 16.3852 1.59035 16.1596 1.82238C15.9341 2.05436 15.5631 2.05969 15.331 1.8341C15.2169 1.72312 15.1067 1.60992 14.9997 1.49344C14.2086 2.35418 13.404 2.87051 12.6803 3.33492C11.7354 3.94131 10.9107 4.47082 10.2841 5.66027L10.5501 6.121C10.712 6.40125 10.6159 6.75961 10.3357 6.92139C10.2434 6.97471 10.1427 7.00002 10.0433 7.00002C9.84081 7.00002 9.64382 6.8949 9.5353 6.70693L9.26928 6.24621C7.92608 6.1943 7.05503 6.64354 6.05741 7.15869C5.29323 7.55326 4.44386 7.99189 3.30268 8.24666C3.65266 9.36228 3.69749 10.3172 3.73786 11.1763C3.79053 12.2979 3.83677 13.2768 4.55354 14.4142H5.08558C5.40913 14.4142 5.67151 14.6765 5.67151 15.0001C5.67151 15.3237 5.40913 15.5861 5.08558 15.5861H4.55348C3.83676 16.7234 3.79053 17.7023 3.73786 18.8238C3.69755 19.6829 3.65266 20.6378 3.30268 21.7535C4.44386 22.0083 5.29323 22.4469 6.05741 22.8415C7.05503 23.3566 7.92614 23.806 9.26934 23.754L9.53536 23.2932C9.6972 23.013 10.0554 22.917 10.3358 23.0788C10.616 23.2406 10.712 23.5989 10.5502 23.8792L10.2842 24.34C10.9107 25.5294 11.7354 26.0589 12.6804 26.6653C13.4042 27.1297 14.2087 27.6461 14.9999 28.5069C15.7911 27.6461 16.5957 27.1297 17.3195 26.6653C18.2644 26.0589 19.0891 25.5294 19.7157 24.34L19.4497 23.8792C19.2878 23.599 19.3839 23.2406 19.6641 23.0788C19.9444 22.9169 20.3027 23.013 20.4645 23.2933L20.7305 23.7541C22.074 23.8062 22.9448 23.3568 23.9423 22.8416C24.7065 22.447 25.5559 22.0084 26.6971 21.7536C26.3471 20.638 26.3023 19.683 26.2619 18.8239C26.2093 17.7025 26.163 16.7235 25.4463 15.5861H24.9142C24.5906 15.5861 24.3283 15.3238 24.3283 15.0002C24.3283 14.6766 24.5906 14.4142 24.9142 14.4142H25.4463C26.163 13.2769 26.2093 12.2979 26.2619 11.1765C26.3023 10.3174 26.3471 9.36246 26.6971 8.24678C25.5559 7.99201 24.7065 7.55344 23.9423 7.15881C22.9447 6.64365 22.0737 6.1943 20.7305 6.24633L20.4644 6.70705C20.3559 6.89502 20.159 7.00014 19.9565 7.00014C19.8571 7.00014 19.7563 6.97477 19.6641 6.9215C19.3838 6.75973 19.2878 6.40137 19.4496 6.12111L19.7157 5.66027C19.605 5.4498 19.486 5.25521 19.3551 5.07164C19.1673 4.80814 19.2286 4.44223 19.4921 4.25443C19.7556 4.06658 20.1216 4.12793 20.3093 4.39143C20.4626 4.60641 20.6021 4.83176 20.7313 5.07346C22.3573 5.02201 23.4353 5.57807 24.48 6.11754C25.3507 6.56713 26.251 7.03207 27.5627 7.21266C27.742 7.23732 27.8998 7.34344 27.9902 7.50018C28.0807 7.65686 28.0937 7.84658 28.0254 8.01416C27.526 9.24047 27.4785 10.2526 27.4325 11.2314C27.3773 12.4061 27.3204 13.6177 26.4622 15.0002C27.3204 16.3828 27.3773 17.5943 27.4325 18.7689C27.4784 19.7477 27.526 20.7599 28.0254 21.9862C28.0937 22.1538 28.0807 22.3435 27.9902 22.5002C27.8998 22.6569 27.742 22.763 27.5627 22.7877C26.251 22.9683 25.3507 23.4332 24.48 23.8828C23.4352 24.4223 22.3568 24.9791 20.731 24.9268C19.9628 26.3614 18.942 27.0165 17.9524 27.6516C17.1276 28.1808 16.2749 28.728 15.4626 29.7737C15.3516 29.9166 15.1809 30.0002 14.9999 30.0002C14.819 30.0002 14.6482 29.9166 14.5372 29.7737C13.7249 28.728 12.8722 28.1808 12.0474 27.6516C11.0577 27.0165 10.0369 26.3614 9.2687 24.9268C7.64342 24.979 6.5646 24.4223 5.51975 23.8828C4.64911 23.4332 3.74876 22.9683 2.43708 22.7877C2.25784 22.763 2.10005 22.6569 2.00958 22.5002C1.91911 22.3434 1.9061 22.1538 1.9743 21.9862C2.47376 20.7597 2.52134 19.7476 2.56727 18.7688Z" fill="#FFD4CE"/>
        <path d="M24.4348 9.22379C24.6087 9.32791 24.7165 9.51459 24.7197 9.71732C24.7513 11.7267 23.9895 13.6208 22.6589 14.9974C24.0067 16.3832 24.7513 18.2749 24.7197 20.2826C24.7165 20.4854 24.6087 20.6721 24.4348 20.7762C23.2434 21.4893 21.9145 21.8534 20.5883 21.8534C19.9966 21.8534 19.4055 21.7802 18.8273 21.6339C18.3005 23.4746 17.041 25.0815 15.2849 26.0589C15.1963 26.1082 15.0981 26.1328 15 26.1328C14.9019 26.1328 14.8037 26.1082 14.7151 26.0589C12.9589 25.0815 11.6995 23.4746 11.1727 21.6339C10.5945 21.7802 10.0034 21.8534 9.41162 21.8534C8.08553 21.8534 6.75656 21.4893 5.56518 20.7762C5.39121 20.6721 5.2834 20.4854 5.28024 20.2827C5.24859 18.2749 5.99332 16.3832 7.34104 14.9975C6.01043 13.6209 5.24859 11.7268 5.28024 9.71738C5.28346 9.51465 5.39127 9.32797 5.56518 9.22384C7.28959 8.19172 9.3109 7.90443 11.1683 8.36849C11.6945 6.50849 12.9604 4.91773 14.715 3.94121C14.8921 3.8426 15.1077 3.8426 15.2849 3.94121C17.0395 4.91773 18.3054 6.50849 18.8316 8.36855C20.6891 7.90443 22.7103 8.19172 24.4348 9.22379ZM17.5946 10.1191C17.5084 10.1689 17.4236 10.2211 17.3399 10.2751C18.0945 10.6503 18.747 11.2009 19.2438 11.8733L19.8271 11.5366C20.1073 11.3747 20.4657 11.4709 20.6275 11.7511C20.7893 12.0313 20.6933 12.3897 20.413 12.5514L19.8312 12.8874C20.1153 13.5346 20.2734 14.2491 20.2734 15.0001C20.2734 15.1129 20.2694 15.2247 20.2624 15.3358C20.3508 15.2905 20.4382 15.2432 20.5243 15.1936C22.3322 14.1497 23.4687 12.2066 23.5447 10.0668C21.6536 9.06254 19.4026 9.07525 17.5946 10.1191ZM16.0032 11.023C15.682 10.942 15.3461 10.8985 15 10.8985C14.6539 10.8985 14.3178 10.942 13.9965 11.0231C13.9893 11.0249 13.9822 11.0265 13.975 11.0281C12.2077 11.4845 10.8984 13.0922 10.8984 15C10.8984 17.2616 12.7383 19.1016 15 19.1016C17.2616 19.1016 19.1015 17.2616 19.1015 15C19.1015 13.0923 17.7923 11.4846 16.0252 11.0282C16.0178 11.0266 16.0105 11.0249 16.0032 11.023ZM23.5449 19.9334C23.4901 18.343 22.8595 16.8622 21.7764 15.7707C21.5638 15.928 21.3419 16.0746 21.1102 16.2083C20.7495 16.4166 20.3703 16.5926 19.9799 16.7346C19.9351 16.8629 19.8854 16.989 19.8311 17.1127L20.4129 17.4486C20.6932 17.6104 20.7892 17.9687 20.6274 18.249C20.5189 18.4369 20.322 18.5421 20.1195 18.5421C20.0201 18.5421 19.9193 18.5167 19.827 18.4634L19.2437 18.1266C19.1636 18.235 19.0796 18.3404 18.9916 18.4423C19.0642 18.8524 19.1015 19.2699 19.1015 19.6875C19.1015 19.9549 19.0854 20.2204 19.0556 20.4831C20.5426 20.8755 22.1401 20.6812 23.5449 19.9334ZM15 24.8666C16.8152 23.731 17.9297 21.7752 17.9297 19.6875C17.9297 19.5876 17.9269 19.4876 17.9218 19.3877C17.2384 19.8444 16.4428 20.1455 15.5859 20.2407V20.9121C15.5859 21.2357 15.3236 21.498 15 21.498C14.6764 21.498 14.4141 21.2357 14.4141 20.9121V20.2407C13.5572 20.1455 12.7616 19.8443 12.0782 19.3877C12.0731 19.4875 12.0703 19.5875 12.0703 19.6875C12.0703 21.7751 13.1848 23.7309 15 24.8666ZM10.9443 20.4832C10.9144 20.2204 10.8984 19.955 10.8984 19.6875C10.8984 19.2699 10.9357 18.8525 11.0083 18.4423C10.9204 18.3405 10.8363 18.2351 10.7563 18.1267L10.173 18.4635C10.0807 18.5168 9.97998 18.5421 9.88061 18.5421C9.67811 18.5421 9.48117 18.437 9.3726 18.249C9.21076 17.9688 9.3068 17.6104 9.58705 17.4486L10.1688 17.1127C10.1146 16.9891 10.0649 16.8631 10.0201 16.7347C9.62959 16.5926 9.25043 16.4166 8.88973 16.2083C8.65811 16.0746 8.43621 15.928 8.22363 15.7708C7.14041 16.8622 6.50994 18.343 6.4551 19.9335C7.85983 20.6812 9.45738 20.8754 10.9443 20.4832ZM6.45527 10.0667C6.53115 12.2066 7.66764 14.1496 9.47566 15.1935C9.56174 15.2432 9.64916 15.2904 9.73758 15.3358C9.73055 15.2247 9.72656 15.1129 9.72656 15.0001C9.72656 14.2491 9.88465 13.5346 10.1688 12.8874L9.58699 12.5514C9.30674 12.3896 9.2107 12.0313 9.37254 11.751C9.53432 11.4708 9.89268 11.3748 10.1729 11.5365L10.7562 11.8733C11.253 11.2009 11.9055 10.6503 12.6601 10.2751C12.5764 10.2211 12.4916 10.1689 12.4054 10.1191C10.5973 9.07525 8.34621 9.06259 6.45527 10.0667ZM14.9999 5.13318C13.65 5.97588 12.6829 7.26236 12.2793 8.74613C12.5217 8.8516 12.7597 8.97043 12.9913 9.1042C13.3519 9.31238 13.6939 9.55267 14.0121 9.81974C14.1444 9.79455 14.2784 9.77433 14.414 9.75927V9.08791C14.414 8.76429 14.6764 8.50197 14.9999 8.50197C15.3236 8.50197 15.5859 8.76429 15.5859 9.08791V9.75927C15.7215 9.77433 15.8555 9.79455 15.9878 9.81974C16.3059 9.55273 16.6479 9.31238 17.0086 9.1042C17.2402 8.97049 17.4781 8.85166 17.7206 8.74613C17.317 7.26236 16.3499 5.97593 14.9999 5.13318Z" fill="#E4988D"/>
        <path d="M17.8575 3.57025C17.5339 3.57025 17.2716 3.30793 17.2716 2.98431C17.2716 2.6607 17.5339 2.39838 17.8575 2.39838H17.858C18.1816 2.39838 18.4437 2.6607 18.4437 2.98431C18.4437 3.30793 18.1812 3.57025 17.8575 3.57025Z" fill="#E4988D"/>
    </g>
    <defs>
        <clipPath id="clip0">
            <rect width="30" height="30" fill="white" transform="matrix(-1 0 0 1 30 0)"/>
        </clipPath>
    </defs>
</svg>
